<?xml version="1.0" standalone="no"?><!DOCTYPE svg PUBLIC "-//W3C//DTD SVG 1.1//EN" "http://www.w3.org/Graphics/SVG/1.1/DTD/svg11.dtd"><svg t="1647518760161" class="icon" viewBox="0 0 1024 1024" version="1.1" xmlns="http://www.w3.org/2000/svg" p-id="8493" width="128" height="128" xmlns:xlink="http://www.w3.org/1999/xlink"><defs><style type="text/css"></style></defs><path d="M303.3088 921.6c-6.2464 0-12.544 0-18.7904-6.2464-12.4928-6.2464-18.7392-25.0368-12.4928-37.5296l150.0672-337.664H234.496c-12.4928 0-18.7392-6.2976-24.9856-12.544-6.2976-12.4928-6.2976-18.7392 0-31.232l212.5824-375.2448c6.2464-12.4928 18.7904-18.7392 25.0368-18.7392h300.1344c12.544 0 18.7904 6.2464 25.0368 12.4928 6.2464 12.544 6.2464 18.7904 0 31.2832l-131.328 225.1264h143.872c12.4928 0 24.9856 6.2464 31.232 18.7392 6.2464 12.544 0 25.0368-6.2464 31.2832L322.048 909.1072c-6.2464 6.2464-12.4928 12.4928-18.7392 12.4928z m-18.7904-450.2528H465.92c12.544 0 18.7904 6.2464 25.0368 12.4928 6.2464 6.2976 6.2464 18.7904 0 31.2832l-100.0448 231.424 318.9248-312.7296h-118.8352c-12.4928 0-18.7392-6.2464-25.0368-12.4928-6.2464-12.4928-6.2464-18.7392 0-31.232l131.328-225.1776H465.92L284.5184 471.3472z" p-id="8494" data-spm-anchor-id="a313x.7781069.0.i0" class="selected" ></path></svg>